<mxfile host="app.diagrams.net" modified="2024-04-18T13:09:30.305Z" agent="Mozilla/5.0 (Windows NT 10.0; Win64; x64) AppleWebKit/537.36 (KHTML, like Gecko) Chrome/124.0.0.0 Safari/537.36" version="24.2.5" etag="naeKEhALK9bS9-cBC8Fz" type="github">
  <diagram name="PÃ¡gina-1" id="UqlVLhobmCQlODKGcx3n">
    <mxGraphModel>
      <root>
        <mxCell id="0" />
        <mxCell id="1" parent="0" />
      </root>
    </mxGraphModel>
  </diagram>
</mxfile>
